<?xml version="1.0" standalone="no"?>
<!DOCTYPE svg PUBLIC "-//W3C//DTD SVG 20010904//EN"
 "http://www.w3.org/TR/2001/REC-SVG-20010904/DTD/svg10.dtd">
<svg version="1.0" xmlns="http://www.w3.org/2000/svg"
 width="700.000000pt" height="700.000000pt" viewBox="0 0 700.000000 700.000000"
 preserveAspectRatio="xMidYMid meet">
<metadata>
Created by potrace 1.14, written by Peter Selinger 2001-2017
</metadata>
<g transform="translate(0.000000,700.000000) scale(0.100000,-0.100000)"
fill="#000000" stroke="none">
<path d="M3338 6995 c-2 -1 -48 -5 -103 -9 -705 -44 -1409 -333 -1990 -815
-74 -61 -311 -293 -384 -376 -176 -198 -370 -490 -499 -750 -113 -228 -235
-569 -276 -775 -3 -14 -7 -36 -10 -50 -5 -23 -18 -90 -30 -164 -3 -16 -8 -50
-12 -75 -3 -25 -8 -57 -10 -71 -12 -78 -19 -220 -19 -415 0 -226 4 -288 31
-505 15 -120 71 -364 121 -530 70 -230 222 -567 343 -763 30 -48 60 -95 65
-105 24 -42 133 -191 209 -286 90 -113 166 -195 295 -322 l84 -82 26 16 c14
10 95 63 179 120 141 95 155 107 173 150 36 86 -2 66 311 161 87 27 159 47
161 45 2 -3 -2 -37 -10 -77 -7 -39 -16 -83 -18 -97 -12 -66 -108 -629 -111
-655 -2 -16 -9 -54 -15 -82 -6 -29 -7 -58 -3 -64 4 -6 70 -42 148 -79 368
-176 773 -289 1171 -326 116 -10 135 -11 136 -5 0 3 2 15 4 26 2 11 7 51 10
90 4 38 8 84 10 100 4 30 6 44 24 205 5 47 13 112 17 145 3 33 8 71 9 85 2 14
3 28 4 31 1 3 22 17 49 30 26 13 76 40 112 60 36 20 124 67 195 104 72 38 229
122 350 187 121 65 226 120 235 123 8 2 65 -33 132 -83 65 -48 145 -107 179
-132 34 -25 152 -111 263 -193 323 -236 394 -287 406 -287 16 0 231 146 345
235 164 128 338 290 460 429 33 38 67 76 75 85 65 69 241 315 323 453 161 267
308 619 383 913 29 111 28 107 50 225 9 47 18 92 19 100 2 8 6 40 10 70 4 30
9 66 11 80 19 114 25 543 10 725 -4 55 -9 102 -11 105 -1 3 -6 32 -10 65 -3
32 -8 62 -10 65 -1 3 -6 28 -9 55 -11 84 -54 263 -97 405 -134 446 -365 872
-673 1240 -136 164 -367 385 -535 514 -85 65 -286 206 -295 206 -3 0 -26 14
-51 31 -48 32 -363 194 -425 218 -19 7 -48 19 -65 26 -44 19 -166 62 -275 96
-207 65 -359 97 -635 134 -102 14 -546 29 -557 20z m-133 -357 c6 -4 24 -18
40 -31 17 -13 189 -139 383 -281 l353 -258 83 -172 c46 -94 144 -295 219 -446
124 -254 140 -292 202 -495 37 -121 80 -260 96 -310 28 -86 29 -98 29 -278 l0
-187 -82 71 c-45 39 -116 93 -158 120 -75 50 -287 161 -326 171 -13 3 -31 26
-47 59 -14 30 -53 110 -86 179 -33 68 -59 126 -57 127 1 1 52 -12 114 -29 61
-17 115 -29 118 -25 4 3 -48 226 -115 494 l-122 489 -52 55 c-64 68 -231 250
-255 276 -18 21 -176 192 -297 323 -38 41 -108 117 -155 169 -47 52 -95 103
-108 114 -12 12 -29 31 -37 44 -12 18 82 -47 260 -179z m1457 -618 c175 -287
396 -647 469 -761 33 -51 51 -91 54 -120 3 -24 8 -60 11 -79 9 -51 24 -160 70
-510 2 -19 9 -64 15 -100 12 -76 16 -115 18 -152 0 -15 7 -33 14 -40 6 -7 46
-52 87 -98 41 -47 79 -88 84 -91 5 -4 -2 -18 -15 -31 -83 -84 -248 -310 -277
-378 l-14 -35 -37 125 c-20 69 -45 142 -55 162 -30 62 -135 129 -287 183 -69
24 -76 29 -73 51 1 13 5 106 9 206 3 100 7 183 8 185 1 1 24 -11 50 -28 26
-16 49 -29 52 -29 3 0 5 174 5 388 l0 387 -71 205 c-39 113 -103 302 -144 420
-40 118 -87 255 -104 305 -31 89 -34 102 -27 94 2 -2 73 -119 158 -259z
m-1476 -676 c26 -21 89 -73 139 -114 51 -41 146 -119 212 -173 66 -54 127
-112 136 -130 39 -75 84 -157 96 -171 8 -9 11 -16 7 -16 -3 0 4 -17 17 -37 13
-21 31 -52 40 -70 l17 -31 -58 13 c-31 7 -70 16 -87 18 -26 5 -79 15 -162 32
-12 3 -61 38 -110 77 -48 40 -96 80 -107 88 -10 8 -23 20 -30 25 -119 105
-128 109 -541 276 -33 13 -29 12 -130 23 -38 5 -78 10 -88 12 -10 2 -45 6 -78
9 -33 4 -69 8 -79 10 -10 2 -43 6 -72 9 -29 4 -69 8 -88 11 -92 12 -298 37
-325 40 -39 3 -210 24 -255 31 -19 3 -57 7 -85 10 -71 8 -69 14 6 15 35 1 78
3 94 4 48 3 274 16 350 20 196 10 315 16 365 20 30 2 114 7 185 10 72 4 155 8
185 10 30 2 118 6 195 10 77 4 141 8 143 10 13 13 68 -7 108 -41z m-351 -450
c17 -3 62 -11 100 -19 39 -7 90 -16 115 -20 45 -7 73 -20 113 -55 12 -10 62
-50 111 -89 49 -39 86 -71 83 -71 -4 0 -73 -14 -154 -31 -146 -30 -149 -31
-203 -14 -101 31 -464 146 -525 167 -33 11 -66 21 -72 21 -35 1 2 17 155 69
171 58 169 58 277 42z m-304 -324 c134 -38 252 -73 262 -77 13 -6 -6 -16 -75
-40 -138 -47 -423 -145 -425 -147 0 0 9 -50 22 -111 l23 -109 -124 -178 c-69
-97 -133 -179 -142 -182 -9 -3 -35 -7 -57 -10 -22 -3 -87 -12 -145 -21 -58 -8
-130 -18 -160 -21 -30 -3 -76 -10 -102 -14 l-48 -7 44 61 c50 71 249 367 254
379 2 4 -34 -7 -80 -24 -183 -69 -248 -87 -329 -94 -46 -4 -91 -9 -100 -10 -8
-2 -48 -6 -88 -10 -40 -3 -81 -8 -92 -10 -11 -2 -55 -7 -97 -10 -42 -4 -84 -8
-92 -10 -8 -2 -53 -7 -100 -10 l-85 -6 113 73 c243 157 416 268 595 383 103
66 240 154 305 197 l117 76 181 1 181 1 244 -70z m1178 -506 c401 -129 357
-108 395 -184 18 -36 65 -129 105 -208 40 -78 70 -146 67 -151 -7 -10 -77 -24
-117 -23 -39 1 -109 21 -109 32 0 5 -13 37 -29 72 -16 35 -38 84 -48 109 -19
42 -25 47 -84 68 -35 13 -104 38 -154 56 -49 18 -142 52 -206 75 l-117 42 3
41 c2 23 5 68 6 100 1 31 7 57 12 57 6 0 130 -39 276 -86z m2012 -61 c-66
-155 -131 -357 -156 -486 -20 -108 -26 -167 -30 -342 -3 -149 -7 -191 -20
-255 -3 -14 -8 -40 -11 -59 -14 -84 -118 -411 -130 -411 -6 0 -51 104 -85 194
-25 69 -66 218 -85 311 -10 52 -13 268 -4 323 18 110 113 292 235 457 62 82
307 355 320 355 2 0 -13 -39 -34 -87z m-2629 70 c2 -5 57 -51 123 -104 117
-93 181 -127 374 -200 13 -5 22 -12 19 -14 -2 -2 -64 -20 -137 -40 -122 -32
-136 -38 -179 -79 -145 -137 -188 -174 -194 -168 -3 4 -26 74 -51 156 -43 144
-44 151 -31 200 7 28 15 68 18 88 6 41 24 123 32 151 5 17 20 23 26 10z m-225
-306 c20 -39 58 -139 84 -222 54 -170 57 -154 -39 -203 l-53 -27 5 -45 c7 -57
19 -188 20 -220 1 -21 -19 -36 -168 -122 -94 -54 -171 -96 -172 -95 -2 2 -15
75 -29 162 -14 88 -30 185 -35 215 -5 30 -12 73 -15 95 -3 22 -8 52 -10 66 -4
18 3 39 28 75 18 27 86 128 152 224 65 96 127 188 138 203 l19 28 19 -31 c10
-16 36 -63 56 -103z m858 -250 c85 -42 218 -90 300 -107 70 -15 182 -16 243
-2 55 13 48 4 -55 -70 -125 -89 -215 -133 -303 -145 -19 -3 -36 -6 -38 -8 -2
-2 9 -28 25 -59 53 -104 144 -194 278 -271 15 -9 11 -11 -20 -13 -21 -2 -41
-5 -45 -7 -12 -7 -163 -19 -250 -19 -176 0 -303 28 -399 86 -51 31 -120 102
-110 113 3 2 32 -2 64 -10 53 -13 200 -30 233 -28 6 0 32 1 57 2 25 0 45 5 45
11 0 5 -18 38 -41 72 -58 91 -130 253 -144 328 -18 95 -27 207 -18 222 2 4 27
-8 56 -26 29 -18 84 -49 122 -69z m-1640 3 c-2 -4 -7 -38 -10 -76 -3 -38 -8
-85 -10 -104 -2 -19 -7 -66 -10 -105 -10 -111 -14 -156 -20 -215 -8 -75 -13
-122 -21 -210 -3 -41 -8 -78 -10 -81 -4 -7 -189 -99 -461 -230 -119 -58 -164
-74 -280 -100 -76 -16 -145 -32 -153 -34 -39 -9 -208 -47 -230 -51 -23 -5 -93
-20 -133 -30 -46 -11 -65 -15 -97 -20 -19 -3 -39 -8 -44 -12 -5 -3 -5 1 0 9 8
13 363 491 716 964 82 110 153 206 157 214 8 12 59 25 145 36 40 5 85 12 126
20 34 6 76 13 135 20 28 3 79 12 115 19 61 12 97 6 85 -14z m2770 -224 c22
-38 48 -83 59 -100 47 -79 58 -133 60 -308 1 -93 1 -168 -1 -168 -7 0 -98 130
-133 190 -63 108 -106 236 -112 330 -2 29 12 198 18 223 1 4 2 22 3 40 1 27 7
19 34 -53 18 -47 50 -116 72 -154z m-1900 -580 l43 -166 -31 -24 c-18 -13 -72
-51 -122 -85 l-90 -61 -17 88 c-10 48 -20 101 -23 117 -3 17 -12 61 -20 99 -8
38 -13 72 -10 74 10 11 220 130 223 127 2 -2 23 -78 47 -169z m1530 -18 c179
-111 303 -235 372 -372 l25 -49 -34 22 c-54 36 -129 68 -192 81 -72 15 -212
15 -293 1 -32 -6 -74 -13 -93 -17 -41 -7 -204 -7 -240 1 -14 3 -45 8 -70 11
-114 15 -330 102 -438 176 -113 77 -235 236 -144 189 73 -38 244 -72 370 -73
123 -1 165 4 367 42 55 10 118 21 140 25 22 3 56 10 75 14 47 12 61 7 155 -51z
m1166 -193 c21 -100 66 -229 133 -381 62 -140 88 -261 91 -429 2 -122 -11
-214 -46 -331 l-24 -79 -7 50 c-4 28 -9 68 -12 90 -19 152 -129 398 -278 620
l-80 120 32 90 c18 50 60 171 94 270 l60 180 8 -50 c5 -27 18 -95 29 -150z
m-3645 -455 l0 -440 -100 -31 c-56 -17 -119 -37 -141 -45 -22 -7 -137 -43
-255 -80 -118 -36 -270 -83 -338 -104 -84 -26 -125 -34 -130 -26 -4 6 -37 71
-74 145 l-66 134 86 96 c48 53 93 103 102 111 8 8 64 69 125 135 346 377 287
330 545 444 124 55 230 100 236 100 7 1 10 -131 10 -439z m1096 311 c13 -14
43 -51 68 -81 25 -30 47 -57 50 -60 3 -3 25 -30 49 -60 25 -30 50 -59 56 -65
20 -19 155 -186 155 -193 0 -5 -279 -82 -390 -107 -8 -1 -41 -10 -72 -18 l-57
-15 -10 32 c-5 17 -35 116 -66 220 -31 104 -59 194 -62 201 -2 8 44 52 114
109 104 84 119 93 130 79 7 -9 23 -28 35 -42z m1533 -116 c82 -21 195 -70 258
-114 37 -25 56 -51 103 -138 31 -60 69 -130 84 -158 15 -27 49 -90 75 -140 26
-49 66 -123 87 -163 22 -40 38 -75 36 -77 -2 -2 -44 -6 -93 -10 -50 -3 -110
-8 -135 -10 -25 -2 -88 -7 -140 -10 -52 -4 -105 -8 -117 -10 -29 -5 -29 4 2
33 30 29 71 102 80 143 38 174 -71 397 -260 531 -62 44 -199 113 -243 123 -63
13 -20 24 86 20 59 -2 139 -11 177 -20z m-738 -718 l283 -225 -38 -16 c-20 -8
-48 -22 -62 -30 -14 -8 -189 -97 -390 -197 -282 -140 -367 -178 -373 -167 -5
7 -68 177 -141 378 l-133 365 31 9 c17 5 139 37 271 71 195 50 243 60 255 50
8 -7 142 -114 297 -238z m1622 132 c55 -84 98 -195 118 -304 15 -82 7 -351
-12 -408 -2 -7 -9 -31 -15 -54 -6 -24 -15 -43 -20 -43 -5 0 -120 72 -255 160
-136 88 -250 160 -255 160 -4 0 -13 7 -20 15 -7 8 -34 27 -61 42 -53 28 -62
43 -26 44 33 1 279 31 377 45 57 9 83 27 110 74 22 40 25 57 26 160 1 63 -3
125 -7 138 -14 38 5 24 40 -29z"/>
</g>
</svg>
