<svg
    version="1.1"
    id="svg2"
    width="50"
    height="50"
    viewBox="0 0 665.02795 664.47998">
  <defs id="defs6" />
  <g id="g10" transform="matrix(1.3333333,0,0,-1.3333333,-449.29866,1259.4173)">
    <g id="g12" transform="scale(0.1)">
      <path
          d="m 7501.98,5374.34 c 5.11,286.17 -266.58,626.84 -266.58,626.84 l 73.25,198.97 62.17,193.65 c 41.73,-342.37 124.38,-361.81 168.39,-564.57 57.67,-265.71 -37.23,-454.89 -37.23,-454.89 z m -146.2,-314.27 -467.45,301.49 c 0,0 303.42,32 332.2,45.01 98.34,44.42 48.46,282.04 48.46,282.04 220.22,-272.11 86.79,-628.54 86.79,-628.54 z m -574.32,787.78 c -102.21,160.99 -327.05,222.32 -327.05,222.32 0,0 231.66,44.28 432.66,-112.43 l 248.69,-463.31 -374.74,-27.26 c 187.37,159.33 20.44,380.68 20.44,380.68 z m -1032.24,576.61 c 0,0 189.5,-102.2 458.63,-51.1 l 280.44,51.18 c 0,0 270.19,-116.94 362.15,-348.6 -59.34,59.96 -195.03,116.87 -396.03,75.99 -311.98,-63.46 -660.91,129.45 -705.19,272.53 z M 5734.88,5084.24 5538,5626.5 l 386.24,99.59 422.64,-336.69 z m -355.3,965.48 166.56,133.34 309.69,-370.7 -377.45,-96.5 z m -99.65,374.82 162.68,95.31 63.82,-244.85 -173.6,-119.32 z m -164.32,456.43 245.24,361.11 81.76,-156.71 63.82,-208.77 -99.66,-56.82 20.94,-203.69 -247.12,-141.29 z m -260.64,233.36 -371.36,-51.1 215.1,318.53 -226.16,-81.76 -542.53,-57.92 817.62,524.64 h 250.39 l 378.15,-109.01 -373.17,-129.46 33.03,-156.71 z m -55.5,-712.86 -427.43,-208.66 -577.44,-129.46 638.78,858.5 421.59,64.73 z m 0,-794.62 -684.64,-212.92 -102.35,208.08 102.35,113.85 344.63,372.67 340.01,150.77 z m 803.26,2691.32 369.87,-303.2 139.86,-254.65 -233.79,46.84 -251.25,207.81 -316.4,129.46 -892.99,109.01 z m 198.44,-1022.87 9.37,145.64 458.5,-148.48 154.71,-303.77 c -70.25,-28.73 -129.94,-15.4 -163.52,0 l -74.1,167.78 z m -735.01,598.73 252.17,84.99 266.51,-47.51 178,-144.79 -221.43,-44.29 z m 490.58,-502.49 192.48,-153.31 199.29,-82.61 -199.29,-53.65 -172.05,-160.12 -66.43,221.44 z m 802.28,-882.35 c 0,0 -487.16,-105.6 -609.8,126.05 0,0 166.07,-52.8 299.79,-27.25 0,0 -170.34,211.22 -153.3,453.09 0,0 317.68,-226.54 549.33,-143.08 0,0 -160.8,-159.2 -317.68,-166.49 0,0 42.15,-158.44 231.66,-242.32 z m -153.72,2294.15 310.43,-631.66 139.68,-453.1 v -265.72 c 0,0 -137.97,160.12 -421.24,270.84 l -121.71,255.32 c 0,0 154.58,-45.81 175.03,-45.81 l -175.03,703.21 -669.85,727.62 z M 6914.32,6598.21 V 6393.8 c 0,0 -123.51,148.72 -160.12,282.76 -36.6,134.05 -3.4,146.49 0,310.02 0,0 36.3,-126.85 91.98,-207.81 72.64,-105.61 68.14,-180.56 68.14,-180.56 z m 145.86,1556.88 89.87,-655.87 130.49,-147.27 c 0,0 -181.41,-192.48 -223.14,-310.87 0,0 -47.23,199.58 -78.35,231.66 -75.69,78.02 -241.9,122.65 -241.9,122.65 l 11.09,301.49 77.52,-49.39 v 555.29 l -255.52,746.08 c 0,0 407.55,-674.54 489.94,-793.77 z m 418.61,-768.43 c -0.14,-0.57 -0.9,-1.64 -1.91,-2.93 -19.16,-36.67 -177.28,-390.26 -161.48,-630.6 15.78,-239.92 -116.46,-552.98 -116.46,-552.98 0,0 -211.19,411.69 -98.77,680.82 107.72,257.87 353.34,473.21 376.71,502.76 1.41,2.72 2.15,3.87 1.91,2.93 z m -1615.2,2058.97 c -1375.11,0 -2493.85,-1118.73 -2493.85,-2493.85 0,-732.97 317.89,-1393.05 823,-1849.74 l 258.51,175.21 31.16,82.71 46.12,14.38 270.94,83.4 -120.28,-700.14 c 313.41,-169.86 667.1,-274.42 1042.72,-295.57 l 55.41,493.28 677.09,361.33 c 5.55,-5.54 503.48,-369.79 688.26,-504.92 727.08,436.21 1214.78,1232.21 1214.78,2140.06 0,1375.12 -1118.74,2493.85 -2493.86,2493.85"
          style="fill:#f58614;fill-opacity:1;fill-rule:nonzero;stroke:none"
          id="path48" />
    </g>
  </g>
</svg>
